{"title":"Dead Mans Shoes-720p MP4 AAC x264 BRRip 2004-CC","uid":7322682,"size":2042141273,"categoryP":"video","categoryS":"hd___movies","magnet":"?xt=urn:btih:59c63e9bf5a3cb82439c2d59a6d983eecfe43fe9&amp;dn=Dead+Mans+Shoes-720p+MP4+AAC+x264+BRRip+2004-CC&amp;tr=udp%3A%2F%2Ftracker.openbittorrent.com%3A80&amp;tr=udp%3A%2F%2Fopen.demonii.com%3A1337&amp;tr=udp%3A%2F%2Ftracker.coppersurfer.tk%3A6969&amp;tr=udp%3A%2F%2Fexodus.desync.com%3A6969","seeders":1,"leechers":1,"uploader":"Caveman44","files":-1,"time":1338664572,"description":"Source: Dead.Mans.Shoes.2004.720p.BluRay.x264-CiNEFiLE\n\nSubs: Danish, Dutch, English, French, Greek, Persian, Polish, Servian and Spanish.\n\nSample and Screens included.\n &lt;a href=&quot;\nhttp://www.imdb.com/title/tt0419677/&quot; rel=&quot;nofollow&quot; target=&quot;_NEW&quot;&gt;\nhttp://www.imdb.com/title/tt0419677/&lt;/a&gt;\n\nGeneral\nComplete name                    : Dead Mans Shoes-720p MP4 AAC x264 BRRip 2004-CC.mp4\nFormat                           : MPEG-4\nFormat profile                   : Base Media\nCodec ID                         : isom\nFile size                        : 1.88 GiB\nDuration                         : 1h 26mn\nOverall bit rate                 : 3 110 Kbps\nEncoded date                     : UTC 2012-06-01 10:12:05\n\nVideo\nID                               : 1\nFormat                           : AVC\nFormat/Info                      : Advanced Video Codec\nFormat profile                   : &lt;a class=&quot;__cf_email__&quot; href=&quot;/cdn-cgi/l/email-protection&quot; data-cfemail=&quot;276f4e404f676b140916&quot;&gt;[email&amp;#160;protected]&lt;/a&gt;&lt;script cf-hash='f9e31' type=&quot;text/javascript&quot;&gt;\n/* &lt;![CDATA[ */!function(){try{var t=&quot;currentScript&quot;in document?document.currentScript:function(){for(var t=document.getElementsByTagName(&quot;script&quot;),e=t.length;e--;)if(t[e].getAttribute(&quot;cf-hash&quot;))return t[e]}();if(t&amp;&amp;t.previousSibling){var e,r,n,i,c=t.previousSibling,a=c.getAttribute(&quot;data-cfemail&quot;);if(a){for(e=&quot;&quot;,r=parseInt(a.substr(0,2),16),n=2;a.length-n;n+=2)i=parseInt(a.substr(n,2),16)^r,e+=String.fromCharCode(i);e=document.createTextNode(e),c.parentNode.replaceChild(e,c)}}}catch(u){}}();/* ]]&gt; */&lt;/script&gt;\nFormat settings, CABAC           : Yes\nFormat settings, ReFrames        : 5 frames\nCodec ID                         : avc1\nCodec ID/Info                    : Advanced Video Coding\nDuration                         : 1h 26mn\nBit rate mode                    : Variable\nBit rate                         : 2 732 Kbps\nNominal bit rate                 : 2 785 Kbps\nMaximum bit rate                 : 45.5 Mbps\nWidth                            : 1 264 pixels\nHeight                           : 720 pixels\nDisplay aspect ratio             : 16:9\nFrame rate mode                  : Variable\nFrame rate                       : 25.000 fps\nMinimum frame rate               : 16.667 fps\nMaximum frame rate               : 25.000 fps\nResolution                       : 24 bits\nColorimetry                      : 4:2:0\nScan type                        : Progressive\nBits/(Pixel*Frame)               : 0.120\nStream size                      : 1.65 GiB (88%)\nWriting library                  : x264 core 112\n\nAudio\nID                               : 2\nFormat                           : AAC\nFormat/Info                      : Advanced Audio Codec\nFormat version                   : Version 4\nFormat profile                   : LC\nFormat settings, SBR             : No\nCodec ID                         : 40\nDuration                         : 1h 26mn\nBit rate mode                    : Variable\nBit rate                         : 376 Kbps\nMaximum bit rate                 : 639 Kbps\nChannel(s)                       : 6 channels\nChannel positions                : Front: L C R, Rear: L R, LFE\nSampling rate                    : 48.0 KHz\nResolution                       : 16 bits\nStream size                      : 232 MiB (12%)\nLanguage                         : English\n\nEnjoy...\n\nRequested by DreamExtractor.","torrent":{"xt":"urn:btih:59c63e9bf5a3cb82439c2d59a6d983eecfe43fe9","amp;dn":"Dead+Mans+Shoes-720p+MP4+AAC+x264+BRRip+2004-CC","amp;tr":["udp%3A%2F%2Ftracker.openbittorrent.com%3A80","udp%3A%2F%2Fopen.demonii.com%3A1337","udp%3A%2F%2Ftracker.coppersurfer.tk%3A6969","udp%3A%2F%2Fexodus.desync.com%3A6969"],"infoHash":"59c63e9bf5a3cb82439c2d59a6d983eecfe43fe9","infoHashBuffer":{"type":"Buffer","data":[89,198,62,155,245,163,203,130,67,156,45,89,166,217,131,238,207,228,63,233]},"announce":[],"urlList":[]}}